<?xml version="1.0" standalone="no"?>
<!DOCTYPE svg PUBLIC "-//W3C//DTD SVG 20010904//EN"
 "http://www.w3.org/TR/2001/REC-SVG-20010904/DTD/svg10.dtd">
<svg version="1.0" xmlns="http://www.w3.org/2000/svg"
 width="1280.000000pt" height="1174.000000pt" viewBox="0 0 1280.000000 1174.000000"
 preserveAspectRatio="xMidYMid meet">
<metadata>
Created by potrace 1.15, written by Peter Selinger 2001-2017
</metadata>
<g transform="translate(0.000000,1174.000000) scale(0.100000,-0.100000)"
fill="#000000" stroke="none">
<path d="M8660 10765 c-8 -2 -49 -9 -90 -15 -218 -36 -442 -158 -645 -352
-246 -235 -437 -522 -620 -935 -1 -1 -34 9 -75 23 -186 62 -456 73 -641 24
-33 -9 -60 -45 -359 -476 -273 -393 -327 -465 -344 -460 -11 3 -61 11 -112 17
-107 14 -96 -1 -114 154 -17 139 -13 131 -69 139 -48 6 -49 7 -53 44 -3 20 1
51 9 69 16 40 16 58 -1 21 -11 -25 -14 -14 -34 118 -25 158 -44 214 -75 214
-18 0 -19 -6 -13 -117 9 -161 14 -328 9 -275 l-4 42 -44 0 c-33 0 -45 4 -49
18 -3 9 -2 -3 1 -28 3 -25 11 -48 17 -52 7 -5 6 -8 -5 -8 -12 0 -21 35 -43
178 -15 97 -32 193 -38 212 -11 38 -35 70 -51 70 -6 0 -8 -75 -4 -212 3 -117
2 -197 -3 -178 -5 24 -8 28 -9 13 -1 -19 -7 -23 -31 -23 -17 0 -30 5 -31 13
-1 6 -4 1 -8 -13 -5 -17 -16 37 -36 165 -28 183 -55 271 -80 267 -6 -2 -9 -79
-7 -217 l4 -215 -24 0 c-66 1 -64 -3 -94 193 -28 177 -55 266 -79 256 -6 -2
-9 -80 -6 -213 l3 -208 -43 7 c-24 4 -45 8 -46 9 -1 1 -114 372 -158 518 -25
85 -26 87 -50 78 -27 -10 -20 -24 -74 155 -16 55 -43 146 -60 202 l-31 102
-46 -16 c-39 -13 -54 -14 -104 -3 -76 16 -73 17 -83 -22 -5 -18 -13 -35 -17
-38 -5 -3 22 -109 60 -235 38 -126 68 -230 67 -230 -21 -12 -183 -52 -188 -47
-4 4 -23 52 -44 108 -20 56 -41 107 -45 114 -6 10 -23 7 -80 -14 l-72 -26 -15
40 c-9 22 -22 40 -29 40 -10 0 -52 -15 -72 -25 -1 -1 5 -21 13 -45 8 -23 15
-44 15 -45 0 -2 -13 -6 -30 -10 -16 -4 -32 -10 -35 -15 -3 -4 51 -159 120
-344 69 -185 125 -340 125 -345 0 -9 -60 -34 -66 -28 -5 4 -147 302 -231 482
-40 88 -83 170 -95 182 -33 36 -81 47 -117 29 -60 -32 -58 -98 8 -242 l50
-109 -32 -17 c-18 -9 -37 -17 -43 -18 -6 0 -104 192 -219 428 -114 235 -213
436 -220 448 -13 20 -220 149 -240 149 -5 0 -17 -61 -26 -135 l-16 -135 129
-265 129 -264 -23 -18 c-32 -25 -45 -22 -63 12 l-16 30 -72 -54 -72 -55 -43
77 c-25 42 -55 96 -68 119 l-24 42 -64 -37 c-58 -33 -63 -39 -54 -57 6 -11 89
-160 184 -332 96 -171 174 -315 174 -321 0 -10 -49 -47 -54 -40 -2 2 -51 86
-111 188 -59 102 -109 187 -111 189 -2 2 -23 -8 -46 -22 l-43 -25 -94 159
c-51 87 -96 159 -100 159 -3 0 -20 -9 -37 -19 l-32 -19 -67 94 c-36 52 -76
101 -88 109 -56 39 -157 0 -195 -75 -22 -43 -22 -63 -5 -123 2 -10 90 -138
195 -284 105 -147 192 -272 195 -279 2 -6 -64 -71 -146 -145 -148 -131 -150
-134 -132 -154 10 -11 132 -148 271 -304 l252 -283 -43 -44 -44 -44 -243 249
-242 250 -73 -6 c-39 -3 -74 -7 -76 -9 -2 -2 120 -130 272 -285 l275 -282 -31
-39 -31 -39 84 -84 c46 -46 81 -88 77 -92 -5 -4 -25 -7 -46 -6 -31 2 -40 -2
-44 -17 -3 -11 0 -21 6 -23 13 -4 -14 -76 -49 -130 -29 -44 -22 -73 8 -36 20
24 20 24 1 -9 -26 -48 -69 -87 -78 -71 -5 8 -4 10 4 5 7 -5 10 -2 9 5 -2 7 2
13 9 14 18 0 36 22 28 34 -4 7 -27 -9 -61 -44 -30 -30 -72 -67 -94 -81 -22
-15 -38 -29 -35 -32 2 -3 11 1 19 7 8 7 21 9 27 5 8 -4 9 -3 5 4 -5 8 -2 10 8
6 22 -8 8 -26 -14 -19 -10 3 -22 0 -26 -6 -5 -9 -2 -10 12 -6 14 5 12 2 -6
-13 -43 -34 -10 -22 41 16 79 58 157 152 201 242 22 45 44 80 49 76 5 -3 7
-10 3 -15 -3 -5 -1 -8 5 -7 10 3 299 -250 300 -262 0 -3 -7 -15 -17 -28 l-17
-22 -110 81 c-61 44 -122 92 -137 107 -15 14 -29 24 -31 21 -2 -2 -13 -55 -24
-116 l-19 -113 21 0 c44 0 57 -30 49 -115 -5 -51 -4 -76 3 -72 7 5 58 -22 91
-49 2 -1 1 -12 -3 -23 -4 -14 -11 -18 -23 -14 -9 4 -108 69 -220 144 -166 112
-200 139 -186 147 16 9 15 10 -5 17 -11 3 -19 11 -16 16 4 5 2 9 -3 9 -6 0
-12 -7 -16 -15 -3 -8 -12 -12 -20 -9 -11 4 -13 -4 -10 -43 3 -47 -41 -345 -55
-371 -6 -10 -15 -7 -40 14 l-32 27 6 -49 c24 -197 26 -174 -27 -333 -52 -157
-60 -175 -145 -353 -36 -74 -61 -114 -69 -111 -9 3 -11 -2 -7 -18 4 -15 3 -20
-5 -15 -7 4 -12 2 -12 -3 0 -6 5 -11 10 -11 6 0 16 -12 22 -26 11 -23 13 -24
19 -7 7 16 8 16 8 1 1 -10 5 -18 10 -18 5 0 7 9 4 20 -5 19 -2 20 34 14 22 -3
100 -14 173 -23 l134 -16 8 -33 c5 -18 13 -30 19 -26 6 3 21 3 34 0 18 -5 27
-17 35 -46 7 -26 17 -40 27 -40 13 0 15 -9 9 -61 -3 -34 -6 -110 -7 -168 0
-86 -2 -102 -12 -87 -31 48 -60 76 -82 76 -32 0 -55 -61 -55 -147 0 -112 -15
-73 -75 195 -13 57 -25 105 -28 108 -2 2 -12 2 -21 -2 -17 -6 -22 -39 -7 -48
4 -3 11 -20 14 -38 4 -18 14 -71 23 -118 9 -47 17 -129 19 -183 2 -105 16
-137 60 -137 18 0 24 -7 29 -38 3 -20 6 -56 6 -80 0 -29 9 -59 26 -88 22 -38
30 -44 60 -44 27 0 38 7 58 36 l24 35 11 -64 c16 -90 15 -92 -20 -63 -17 14
-39 26 -49 26 -23 0 -34 -43 -24 -97 11 -63 -5 -31 -40 76 -36 109 -39 116
-55 107 -6 -4 -5 -20 4 -46 17 -48 41 -151 49 -204 6 -46 31 -76 61 -76 18 0
25 -8 34 -43 11 -47 51 -97 76 -97 8 0 24 9 34 19 19 19 20 19 40 -40 11 -32
18 -59 15 -59 -3 0 -18 9 -33 21 -40 29 -65 22 -69 -19 -2 -19 1 -47 7 -63 5
-16 7 -29 3 -29 -7 0 -21 29 -68 140 -20 48 -42 71 -45 47 -1 -8 31 -95 57
-155 8 -18 14 -42 14 -53 0 -27 28 -79 43 -80 6 -1 19 -1 28 0 11 1 23 -13 34
-43 17 -45 50 -76 80 -76 8 0 23 13 33 30 l18 29 22 -45 c12 -24 22 -49 22
-53 0 -5 -22 -17 -50 -26 -27 -9 -52 -21 -55 -25 -7 -11 28 -82 62 -127 13
-18 19 -33 12 -33 -37 0 -222 33 -263 47 l-49 16 -21 -26 -22 -27 -72 21 c-40
11 -85 19 -100 17 -22 -3 -10 -12 76 -56 64 -32 95 -52 80 -52 -22 0 -22 -1 7
-20 17 -11 69 -36 117 -56 48 -20 97 -47 109 -60 16 -17 26 -21 35 -13 19 16
61 0 93 -37 l30 -34 46 64 c25 35 45 67 45 71 0 4 -13 5 -30 1 -31 -6 -42 7
-14 18 28 11 57 6 76 -11 16 -14 24 -15 51 -5 22 8 34 9 42 1 7 -8 -7 -26 -48
-63 -107 -96 -121 -144 -64 -212 18 -21 61 -74 96 -117 l64 -77 -39 -35 c-21
-19 -46 -34 -53 -35 -29 0 -71 -52 -71 -86 0 -27 4 -32 31 -38 17 -3 35 -6 40
-6 5 0 39 29 75 65 52 51 70 63 80 54 25 -21 105 8 170 61 32 26 62 46 66 43
9 -5 7 -10 -40 -76 l-35 -48 32 -39 32 -40 -251 -297 c-138 -164 -249 -302
-247 -308 2 -5 9 -10 15 -10 6 0 114 108 239 240 125 132 229 241 233 242 3 1
14 -4 24 -12 18 -14 18 -15 0 -42 -10 -15 -22 -41 -25 -58 l-6 -30 -2 28 c-1
23 -5 27 -30 27 -16 0 -35 -8 -42 -18 -13 -15 -12 -16 3 -4 14 11 22 7 62 -36
35 -38 52 -48 73 -47 16 1 20 0 10 -2 -15 -4 -16 -7 -6 -19 9 -12 15 -12 27
-2 11 9 8 0 -6 -23 -26 -43 -27 -60 -7 -99 32 -61 112 -75 161 -29 l23 21 -4
-23 c-3 -13 2 -4 10 21 10 31 34 64 75 105 54 53 62 58 80 47 11 -6 22 -12 24
-12 2 0 22 25 43 55 34 47 42 53 56 42 15 -11 11 -21 -38 -102 -65 -107 -94
-164 -95 -186 0 -9 9 -24 21 -35 21 -19 21 -19 43 9 22 27 22 27 149 27 l127
0 -24 -49 c-14 -27 -23 -51 -20 -54 7 -7 -77 -162 -127 -237 -48 -70 -56 -103
-35 -135 22 -33 42 -32 77 6 l28 30 201 -35 c111 -20 208 -36 217 -36 22 0 46
33 115 158 60 110 78 131 78 92 0 -26 32 -43 52 -27 9 7 28 45 43 85 16 40 33
71 39 69 6 -2 45 -14 86 -27 l76 -23 -15 -69 c-12 -59 -13 -71 -1 -78 11 -7 2
-59 -48 -282 -33 -150 -68 -300 -77 -333 -9 -33 -17 -101 -18 -152 -1 -89 -1
-93 28 -123 32 -34 74 -40 99 -14 17 16 24 38 28 88 3 29 5 30 313 135 171 58
316 110 323 114 6 5 12 23 12 41 0 18 3 36 8 40 4 4 21 67 37 139 24 102 35
133 48 135 12 3 17 -3 17 -20 0 -30 17 -48 45 -48 43 0 56 30 73 179 13 112
20 141 32 141 11 0 12 -2 3 -8 -8 -5 -10 -21 -6 -45 3 -20 10 -34 15 -31 6 4
8 -58 6 -163 -3 -186 2 -207 51 -201 20 2 27 10 31 33 4 25 21 38 138 104 101
58 132 80 132 96 0 39 12 65 31 65 25 0 29 9 42 110 l11 90 31 -1 c16 0 25 -3
18 -5 -8 -4 -9 -14 -2 -36 11 -41 22 -51 14 -13 -4 20 -3 26 3 17 15 -22 65
-11 72 16 4 18 10 6 23 -47 l19 -71 36 29 c51 40 98 91 85 91 -10 0 -29 68
-21 75 2 2 19 6 38 10 35 6 36 6 49 -42 7 -26 15 -80 18 -120 l6 -72 46 18
c30 11 45 23 42 32 -2 8 -6 56 -9 108 -3 66 -2 92 6 87 6 -3 14 -31 17 -61 6
-45 11 -55 24 -51 9 3 33 8 54 12 26 4 41 13 46 27 7 19 8 19 15 -7 5 -22 1
-34 -24 -62 -63 -73 -26 -159 81 -184 101 -24 215 5 250 65 10 17 32 41 49 53
16 13 30 30 30 40 0 10 7 27 14 38 14 19 10 33 -39 155 -85 209 -71 269 38
162 74 -73 135 -157 183 -255 l37 -76 -48 -54 c-67 -74 -123 -163 -141 -224
-41 -142 67 -224 256 -196 136 19 236 65 276 127 9 14 22 64 29 112 7 49 21
104 31 123 14 26 18 58 18 131 1 110 -13 139 -66 139 -25 0 -27 2 -18 19 5 11
10 30 10 43 0 13 7 32 15 42 22 29 18 69 -8 94 -35 33 -97 30 -166 -9 l-55
-32 -34 39 c-59 69 -112 141 -112 152 0 22 15 12 43 -29 24 -33 31 -38 44 -28
35 29 36 48 4 85 -34 38 -42 65 -13 43 9 -7 31 -26 49 -43 l32 -29 -19 -28
c-35 -49 -21 -89 32 -89 32 0 97 25 99 37 7 57 7 101 -1 113 -8 12 -14 12 -45
1 -40 -14 -56 -6 -97 53 -17 23 -18 30 -7 37 10 6 24 -2 47 -24 l34 -32 15 23
16 23 68 -74 c106 -115 371 -421 376 -434 3 -7 -5 -25 -16 -42 -34 -47 -80
-151 -91 -207 -14 -67 -1 -121 42 -170 68 -77 175 -107 383 -108 146 -1 151 0
197 26 47 28 93 78 121 133 21 41 54 150 62 203 4 23 13 55 21 71 12 24 12 36
-1 85 -22 82 -64 139 -125 168 -41 19 -49 26 -44 43 4 11 9 70 11 131 6 144
-8 214 -52 263 -31 33 -38 36 -87 35 -46 0 -110 -22 -179 -61 -5 -3 -173 181
-274 300 -39 47 -47 62 -38 75 14 23 29 21 68 -8 29 -22 32 -29 28 -58 -5 -30
0 -38 44 -81 53 -51 105 -72 188 -75 38 -1 40 1 43 31 3 28 8 34 40 43 20 5
50 10 65 10 44 0 83 46 97 114 6 32 10 66 7 77 -4 15 -2 17 12 9 10 -5 24 -16
31 -25 11 -13 10 -18 -4 -33 -20 -23 -21 -84 -2 -121 22 -42 90 -98 135 -112
33 -10 46 -9 80 5 23 9 55 16 72 16 38 0 85 24 100 51 14 27 14 96 -1 134 -6
17 -29 48 -51 71 l-40 41 30 12 c43 18 54 54 41 135 -14 90 -36 141 -73 172
-26 22 -38 25 -74 21 -24 -2 -63 -18 -89 -35 l-47 -30 -38 25 c-21 14 -36 29
-33 34 3 5 -1 7 -8 4 -7 -3 -24 5 -38 16 l-25 21 29 -17 c16 -9 26 -13 23 -8
-8 13 14 83 26 83 6 0 2 10 -9 23 -10 12 -12 16 -4 10 19 -17 30 -16 30 3 0 9
5 12 12 8 7 -4 8 -3 4 5 -10 16 3 53 16 45 7 -4 8 -2 4 5 -9 13 2 53 13 47 16
-10 3 46 -15 60 -18 14 -18 15 3 5 29 -15 44 7 17 25 -10 7 -28 20 -39 29 -34
28 7 4 71 -41 54 -38 114 -65 114 -51 0 3 -22 19 -50 37 -27 18 -48 36 -45 40
3 5 0 12 -6 16 -8 5 -9 3 -4 -6 5 -8 -5 -5 -24 6 -38 23 -39 28 -1 44 16 7 39
21 52 31 20 18 20 19 2 18 -10 -1 -30 -1 -44 0 -23 2 -24 3 -5 11 29 12 37 12
29 -2 -5 -8 -2 -9 10 -5 9 4 33 0 53 -8 19 -8 38 -15 40 -15 3 0 2 25 -2 55
-3 30 -3 55 1 55 4 0 23 -12 42 -26 28 -22 36 -24 43 -13 5 8 9 17 9 20 0 3
-40 35 -90 70 -49 34 -90 65 -90 67 0 4 16 -5 52 -30 l27 -18 -9 29 c-7 24 -5
29 6 24 8 -3 11 -9 8 -14 -3 -5 1 -6 9 -3 8 3 20 -2 27 -11 7 -8 16 -15 20
-15 8 0 35 99 29 104 -2 2 -28 16 -57 30 -29 15 -50 31 -47 36 3 5 13 6 21 3
9 -3 20 0 25 8 6 10 9 11 9 1 0 -7 -7 -15 -16 -19 -13 -5 -13 -7 -2 -14 18
-12 31 -11 23 1 -3 5 6 36 19 70 14 33 21 58 16 55 -5 -3 -14 -21 -20 -41 -7
-19 -14 -33 -16 -31 -7 6 27 87 36 87 17 0 126 -42 157 -60 19 -11 36 -20 39
-20 2 0 4 35 4 78 l0 78 -47 13 c-65 17 -160 62 -118 55 27 -4 27 -3 -10 15
-55 27 -39 26 42 -3 90 -32 133 -41 133 -27 0 6 -6 11 -12 12 -7 0 -51 16 -98
35 -47 19 -73 32 -57 29 32 -6 35 3 23 77 -4 23 -13 38 -24 41 -39 9 69 -5
141 -19 43 -9 81 -13 84 -11 3 3 2 14 -1 25 -5 15 -27 24 -99 40 -51 11 -82
21 -69 21 21 1 24 6 26 59 1 11 12 19 36 23 21 4 9 5 -28 3 -40 -2 -84 -13
-121 -30 -66 -29 -101 -23 -101 19 0 40 14 50 59 43 l41 -6 0 44 c0 44 -1 46
-40 57 l-41 12 3 66 c3 62 4 66 26 63 28 -4 31 28 2 35 -11 3 -20 11 -20 18 0
15 45 25 112 25 47 0 49 1 42 23 -14 48 -19 51 -89 48 l-66 -2 3 33 c3 29 7
33 41 39 46 7 51 12 42 38 -5 17 -15 21 -49 21 l-42 0 -13 138 c-7 75 -15 153
-18 173 -5 35 -3 36 40 53 25 9 61 34 79 54 19 20 46 45 61 55 15 9 36 35 47
56 10 21 32 48 46 59 l28 19 -24 13 c-16 8 -43 10 -85 6 -54 -5 -64 -4 -80 14
-10 11 -23 20 -29 20 -6 0 -42 21 -80 45 -38 25 -75 45 -83 45 -12 0 -33 38
-33 59 0 5 67 32 150 61 l150 52 65 -46 c35 -26 69 -55 74 -65 6 -10 23 -26
38 -36 l28 -18 -27 30 c-34 35 -35 43 -5 44 16 1 14 3 -10 9 -32 7 -138 88
-129 98 11 10 141 -51 184 -86 25 -20 42 -30 37 -22 -5 8 -20 24 -34 35 l-25
19 25 7 c23 7 23 7 -5 8 -32 1 -146 40 -146 50 0 3 18 14 40 24 22 10 40 23
40 28 0 5 -20 -1 -45 -13 -24 -12 -47 -19 -51 -16 -7 7 10 40 32 62 14 15 14
16 -5 16 -23 0 -28 24 -8 37 13 9 37 48 37 60 -1 5 -9 -2 -19 -14 -10 -12 -21
-19 -25 -16 -3 4 -6 -1 -6 -10 0 -9 -8 -21 -19 -26 -10 -6 -29 -35 -42 -66
-15 -35 -31 -57 -44 -60 -65 -17 -279 -54 -285 -50 -5 3 -13 27 -20 54 -6 27
-20 57 -31 67 -19 17 -19 18 8 29 23 10 34 8 66 -8 26 -14 45 -17 65 -11 l27
8 -30 5 c-69 14 -87 47 -47 94 9 10 11 17 4 17 -6 0 -21 -13 -33 -29 -12 -16
-41 -37 -66 -46 -42 -16 -45 -16 -63 0 -11 10 -26 15 -33 12 -9 -3 -29 10 -48
30 -19 20 -29 37 -23 40 32 11 105 65 120 88 16 25 16 27 0 43 -13 13 -35 17
-104 17 -48 0 -93 -2 -101 -5 -24 -8 -73 122 -79 206 l-4 70 63 38 c70 42 71
42 179 0 49 -19 102 -15 136 10 31 24 6 37 -44 23 -38 -10 -47 -9 -93 14 l-51
25 41 27 c31 20 41 34 41 53 0 22 -4 26 -22 21 -13 -2 -31 -8 -40 -12 -30 -12
-21 15 17 51 41 38 29 56 -15 24 -33 -23 -64 -74 -57 -93 2 -7 -32 -33 -77
-60 -70 -41 -82 -45 -86 -30 -3 10 -25 44 -49 76 -41 54 -43 59 -30 83 18 35
4 54 -56 75 -37 13 -64 34 -116 90 -38 41 -68 78 -69 83 0 5 81 243 181 529
134 388 179 528 175 550 -12 58 -77 192 -142 289 -72 108 -208 252 -292 308
-45 30 -51 38 -47 60 10 44 152 321 219 427 199 317 420 537 650 648 136 66
198 79 356 80 181 0 254 -20 475 -130 311 -154 395 -245 424 -456 6 -44 8
-174 4 -324 -6 -284 6 -411 57 -610 62 -242 155 -418 290 -554 94 -95 162
-139 272 -178 61 -22 90 -27 183 -27 218 0 409 85 648 289 l90 78 31 -15 c124
-61 130 -62 219 -49 149 20 235 58 410 181 122 85 369 333 523 525 156 194
314 401 314 410 0 18 -198 -6 -367 -44 -101 -22 -192 -41 -203 -41 -19 0 -20
6 -20 209 0 192 -11 458 -26 639 l-6 74 -30 -29 c-50 -46 -148 -178 -260 -348
-58 -88 -113 -166 -122 -174 -15 -12 -16 -5 -16 82 0 103 -18 247 -30 247 -14
0 -271 -302 -387 -455 -141 -187 -246 -375 -282 -504 -22 -78 -30 -276 -16
-356 14 -74 55 -163 78 -169 20 -6 16 -12 -47 -72 -194 -186 -433 -278 -598
-230 -202 58 -367 303 -437 648 -31 153 -35 208 -36 548 -1 308 -2 329 -24
400 -66 218 -208 358 -524 517 -158 79 -303 128 -434 148 -87 13 -202 18 -243
10z m-3487 -1802 c-7 -2 -19 -2 -25 0 -7 3 -2 5 12 5 14 0 19 -2 13 -5z m240
-40 c-7 -2 -19 -2 -25 0 -7 3 -2 5 12 5 14 0 19 -2 13 -5z m-2894 -1541 c137
-131 143 -139 130 -160 -8 -12 -17 -21 -20 -20 -4 2 -77 68 -163 147 -153 140
-157 145 -134 157 13 8 28 13 33 13 6 0 75 -62 154 -137z m-379 -150 c0 -4
-17 -20 -38 -37 -20 -16 -31 -21 -23 -12 7 9 10 17 5 17 -4 0 3 11 16 25 21
22 40 25 40 7z m-190 -283 c-23 -155 -40 -242 -46 -236 -3 2 0 26 6 53 6 26 9
66 6 89 -4 33 -4 35 4 15 7 -19 9 -12 5 30 -2 34 -1 46 4 30 6 -19 9 -9 15 45
8 76 16 118 22 112 2 -2 -5 -64 -16 -138z m248 -2 c106 -72 195 -133 197 -137
2 -3 0 -11 -4 -18 -6 -9 -14 -7 -34 8 l-27 21 0 -20 c0 -12 -5 -21 -11 -21
-13 0 -97 47 -121 68 -16 13 -18 13 -18 -1 0 -19 -11 -22 -26 -7 -7 7 -24 1
-53 -21 l-43 -31 61 -28 61 -29 0 -46 c0 -25 -2 -45 -4 -45 -13 0 -144 64
-158 77 -17 15 -18 14 -18 -15 l0 -30 -41 16 c-38 15 -40 18 -34 46 8 43 42
250 50 309 4 32 10 45 18 41 7 -4 99 -66 205 -137z m-261 51 c-3 -8 -6 -5 -6
6 -1 11 2 17 5 13 3 -3 4 -12 1 -19z m-30 -190 c-3 -8 -6 -5 -6 6 -1 11 2 17
5 13 3 -3 4 -12 1 -19z m-10 -50 c-3 -8 -6 -5 -6 6 -1 11 2 17 5 13 3 -3 4
-12 1 -19z m342 -144 c14 -12 -19 -1 -35 12 -18 14 -18 14 6 3 14 -6 27 -13
29 -15z m6506 -63 c-8 -17 -20 -31 -26 -31 -10 0 3 32 24 58 17 22 19 5 2 -27z
m-6892 -55 c-25 -90 -73 -231 -83 -246 -14 -21 -12 -9 5 40 8 24 13 53 9 64
-4 17 -3 18 6 6 9 -12 10 -9 6 15 -5 23 -4 27 5 15 8 -12 9 -8 5 15 -5 23 -4
27 5 15 8 -12 9 -9 5 12 -3 14 -2 37 3 50 9 21 10 21 11 3 1 -17 3 -17 11 5 6
14 8 32 6 41 -2 8 1 16 8 16 10 0 10 -11 -2 -51z m115 13 c29 -13 42 -24 42
-38 0 -11 3 -27 6 -35 4 -11 2 -15 -7 -11 -11 4 -13 -5 -11 -40 2 -25 1 -45
-2 -45 -4 0 -34 11 -68 25 l-61 25 7 -65 6 -64 -32 9 c-17 6 -35 13 -40 18 -6
6 26 122 67 240 5 15 22 11 93 -19z m97 -107 c-3 -3 -11 0 -18 7 -9 10 -8 11
6 5 10 -3 15 -9 12 -12z m-296 -101 c-6 -18 -13 -30 -15 -28 -2 2 1 18 7 36 6
18 13 30 15 28 2 -2 -1 -18 -7 -36z m27 -68 c-11 -11 -19 6 -11 24 8 17 8 17
12 0 3 -10 2 -21 -1 -24z m-55 4 c-10 -9 -11 -8 -5 6 3 10 9 15 12 12 3 -3 0
-11 -7 -18z m-19 -86 c22 33 -8 -42 -53 -131 -54 -108 -74 -139 -64 -101 5 17
4 21 -5 16 -9 -6 -9 -3 -1 14 14 25 22 28 15 4 -5 -15 -3 -15 10 1 18 22 21
40 6 31 -6 -4 -3 10 7 29 9 21 20 31 23 25 4 -6 15 9 25 33 26 66 28 76 6 38
-25 -43 -27 -34 -4 15 10 20 19 31 21 25 3 -9 7 -9 14 1z m81 -10 c33 -13 52
-100 28 -127 -15 -17 -15 -17 1 -5 14 10 17 9 23 -9 5 -15 12 -19 26 -15 10 3
53 -3 96 -15 141 -39 143 -39 143 -66 0 -13 -2 -24 -4 -24 -14 0 -167 39 -177
45 -7 5 -9 1 -6 -11 3 -11 8 -30 11 -45 l5 -25 -162 21 c-126 17 -161 25 -159
35 2 8 29 67 60 132 59 122 65 128 115 109z m6874 -1217 c-3 -3 -12 -4 -19 -1
-8 3 -5 6 6 6 11 1 17 -2 13 -5z m-54 -141 c-7 -2 -19 -2 -25 0 -7 3 -2 5 12
5 14 0 19 -2 13 -5z m47 -13 c8 -5 11 -10 5 -10 -5 0 -17 5 -25 10 -8 5 -10
10 -5 10 6 0 17 -5 25 -10z m-71 -46 c10 -9 -35 -3 -49 6 -11 8 -7 9 15 4 17
-4 32 -8 34 -10z m-192 -389 c0 -8 -4 -12 -9 -9 -5 3 -6 10 -3 15 9 13 12 11
12 -6z m-47 -209 c0 -2 -7 -7 -16 -10 -8 -3 -12 -2 -9 4 6 10 25 14 25 6z
m-224 -393 c-3 -3 -12 0 -20 7 -14 11 -13 16 2 44 l17 31 3 -39 c2 -21 1 -40
-2 -43z m-5742 -3 c18 -6 18 -7 -5 -12 -14 -2 -43 4 -64 13 l-40 18 45 -6 c25
-3 54 -9 64 -13z m5716 -70 c33 -17 40 -26 40 -49 0 -19 -8 -34 -25 -45 -31
-21 -28 -21 -70 15 -40 35 -41 40 -19 74 20 30 24 30 74 5z m-72 -113 c23 -21
30 -47 12 -47 -19 0 -73 57 -66 69 8 13 20 8 54 -22z m236 -9 c-4 -7 -3 -8 4
-4 6 4 25 0 41 -8 l29 -15 -15 -52 c-20 -66 -14 -161 12 -189 35 -39 2 -19
-101 61 -96 74 -120 99 -94 99 21 0 50 44 45 69 -5 25 -5 25 4 3 6 -12 8 -28
5 -35 -3 -8 3 -20 12 -28 16 -12 17 -12 9 1 -19 32 4 118 28 103 7 -4 5 2 -3
12 -14 17 -14 18 8 6 12 -7 20 -17 16 -23z m-77 0 c-3 -8 -6 -5 -6 6 -1 11 2
17 5 13 3 -3 4 -12 1 -19z m-201 -60 c24 -17 44 -37 44 -44 0 -7 10 -16 23
-19 27 -8 97 -55 97 -65 0 -4 -11 -12 -24 -18 -13 -6 -39 -24 -58 -41 l-35
-30 -39 26 c-41 27 -134 113 -134 124 0 8 70 99 76 99 3 0 26 -14 50 -32z
m-106 -192 c41 -25 87 -55 102 -68 26 -22 27 -24 13 -56 l-14 -32 -47 30 c-54
34 -108 47 -127 31 -10 -8 -23 -4 -50 16 -20 14 -37 30 -37 35 0 10 70 88 79
88 3 0 40 -20 81 -44z m-248 -223 c49 -33 214 -223 195 -223 -8 0 -26 -9 -40
-20 l-26 -20 -121 120 -122 121 23 25 c29 31 44 30 91 -3z m-8 -204 l70 -66
-24 -32 c-12 -18 -25 -52 -27 -75 -5 -38 -2 -45 27 -69 26 -22 68 -39 155 -61
5 -1 8 -25 6 -52 -3 -56 11 -99 41 -131 l20 -21 -20 -11 c-12 -6 -23 -11 -25
-11 -3 0 -34 39 -70 88 -36 48 -116 143 -177 212 -117 131 -150 178 -181 260
l-19 49 32 25 32 24 45 -31 c25 -18 76 -62 115 -98z m-4036 -205 c7 -5 -21
-119 -34 -140 -10 -17 -23 -21 -78 -23 l-65 -2 -3 38 c-3 36 18 88 68 170 l14
22 48 -31 c26 -17 49 -33 50 -34z m-643 26 c10 -11 16 -20 13 -20 -3 0 -13 9
-23 20 -10 11 -16 20 -13 20 3 0 13 -9 23 -20z m666 -74 c-14 -36 -22 -33 -9
5 6 16 12 28 14 26 3 -2 0 -16 -5 -31z m10 -29 c-10 -9 -11 -8 -5 6 3 10 9 15
12 12 3 -3 0 -11 -7 -18z m90 4 c30 -19 30 -19 10 -33 -12 -8 -18 -18 -13 -23
4 -5 1 -5 -6 -1 -7 4 -25 4 -40 0 l-27 -8 35 -6 c30 -6 27 -8 -23 -9 l-59 -1
42 50 c23 28 44 50 46 50 2 0 17 -8 35 -19z m3420 -104 l39 -48 -29 -25 c-16
-13 -32 -24 -35 -24 -6 0 -106 194 -106 205 0 15 97 -65 131 -108z m-3286 -72
c-3 -11 -19 -87 -36 -170 -19 -92 -37 -156 -47 -167 -16 -15 -24 -15 -98 -1
l-81 15 13 56 c9 38 10 60 3 68 -7 9 -2 28 17 66 14 29 31 55 36 56 5 2 20 26
34 53 13 27 29 47 34 44 5 -3 7 0 4 8 -3 8 0 18 7 23 7 4 10 3 6 -3 -4 -6 12
-15 34 -22 23 -7 48 -15 58 -18 9 -2 0 9 -19 27 l-35 31 37 -23 c27 -17 36
-28 33 -43z m2930 -90 c30 -60 53 -110 52 -112 -2 -1 -22 4 -45 12 -25 9 -58
12 -84 9 l-43 -6 -23 89 c-12 50 -22 96 -22 103 0 25 29 -11 58 -70 l27 -58
30 24 c29 23 29 24 13 52 -10 16 -22 42 -28 58 -22 58 10 8 65 -101z m-2862
58 c-5 -11 -9 -11 -24 3 -26 24 -24 36 5 23 15 -7 22 -17 19 -26z m2721 -138
c5 -24 4 -26 -4 -12 -16 25 -50 127 -49 146 0 18 43 -89 53 -134z m-2752 64
c-20 -51 -36 -36 -27 25 7 44 8 46 25 31 17 -15 17 -19 2 -56z m88 63 c0 -14
-11 -21 -26 -15 -21 8 -17 23 6 23 11 0 20 -4 20 -8z m98 -28 c12 -4 22 -14
23 -23 0 -10 2 -11 6 -3 2 6 12 12 20 12 14 0 14 -2 -1 -19 -14 -15 -15 -24
-7 -39 8 -16 0 -39 -48 -127 -33 -59 -64 -112 -69 -117 -14 -14 -147 9 -163
29 -10 12 -10 19 1 36 21 35 202 257 209 257 3 0 16 -3 29 -6z m-128 -15 c0
-15 -39 -69 -50 -69 -5 0 -1 18 8 40 16 37 42 55 42 29z m40 -3 c0 -2 -8 -10
-17 -17 -16 -13 -17 -12 -4 4 13 16 21 21 21 13z m-132 -97 c-6 -16 -12 -28
-15 -25 -8 8 8 66 17 61 5 -3 4 -19 -2 -36z m797 -79 c39 -14 71 -32 72 -40 1
-8 9 -128 18 -267 19 -320 30 -294 -152 -353 -73 -24 -134 -42 -136 -39 -2 2
-13 36 -24 74 -11 39 -22 75 -24 80 -5 14 27 201 63 377 22 105 34 145 43 142
8 -4 17 12 25 48 21 96 22 97 34 48 11 -44 12 -45 81 -70z m-755 93 c0 -5 -10
-19 -21 -33 l-20 -25 16 33 c15 30 25 41 25 25z m2047 -19 c-3 -3 -12 -4 -19
-1 -8 3 -5 6 6 6 11 1 17 -2 13 -5z m-1107 -155 c0 -34 1 -34 -45 -12 -24 12
-35 23 -35 39 0 21 2 21 40 12 35 -9 40 -14 40 -39z m717 -61 c17 -57 29 -107
26 -113 -2 -5 -29 -24 -61 -42 l-58 -31 -17 30 c-13 23 -17 53 -17 132 0 115
5 126 60 126 l37 0 30 -102z m20 96 c-3 -3 -12 -4 -19 -1 -8 3 -5 6 6 6 11 1
17 -2 13 -5z m-647 -23 c0 -27 -15 -41 -41 -41 -24 0 -29 4 -29 25 0 22 4 25
35 25 19 0 35 -4 35 -9z m50 -21 c-9 -17 -40 -29 -40 -16 0 18 15 36 31 36 17
0 18 -3 9 -20z m130 1 c0 -11 -4 -23 -10 -26 -17 -10 -11 -54 9 -74 19 -19 18
-22 -15 -167 -19 -81 -35 -148 -36 -149 -2 -1 -52 -18 -112 -38 -105 -35 -126
-38 -126 -15 0 8 61 157 187 456 12 29 17 32 58 32 38 0 45 -3 45 -19z m473
-1 c3 -11 1 -20 -4 -20 -5 0 -9 2 -9 4 0 2 -3 11 -6 20 -3 9 -2 16 4 16 5 0
12 -9 15 -20z m37 13 c0 -5 -5 -15 -10 -23 -7 -12 -9 -10 -7 8 1 19 17 33 17
15z m-820 -38 c32 -17 35 -31 22 -112 -7 -41 -7 -42 -28 -25 -17 13 -23 32
-27 85 -4 37 -4 67 -1 67 3 0 18 -7 34 -15z m895 -39 c30 5 33 4 28 -15 -5
-20 -90 -78 -100 -67 -6 5 15 104 26 121 3 6 7 -3 9 -18 3 -26 6 -27 37 -21z
m-785 17 c0 -5 -9 -35 -19 -68 -12 -40 -25 -61 -36 -64 -16 -3 -17 3 -11 60 4
35 10 67 12 71 7 10 54 10 54 1z m48 -1 c-1 -4 -14 -35 -28 -70 -14 -34 -28
-62 -31 -62 -4 0 2 32 14 70 13 44 25 70 34 70 8 0 13 -3 11 -8z m629 -14 c-3
-8 -6 -5 -6 6 -1 11 2 17 5 13 3 -3 4 -12 1 -19z m-442 -189 c-30 -133 -35
-152 -41 -147 -2 2 1 20 5 39 5 19 19 78 31 132 12 54 24 96 26 94 3 -3 -7
-56 -21 -118z m-336 28 c-1 -43 -13 -84 -21 -72 -3 6 -9 36 -13 69 -7 57 -7
58 14 47 15 -9 21 -21 20 -44z m46 -9 c-11 -47 -25 -82 -31 -76 -3 3 -2 29 2
57 4 35 11 51 21 51 11 0 13 -8 8 -32z m25 -5 c-11 -17 -11 -17 -6 0 3 10 6
24 7 30 0 9 2 9 5 0 3 -7 0 -20 -6 -30z m-88 -113 c-6 -41 -12 -38 -12 6 0 19
4 33 8 30 5 -3 7 -19 4 -36z m31 10 c-3 -12 -8 -19 -11 -16 -5 6 5 36 12 36 2
0 2 -9 -1 -20z"/>
<path d="M2104 7218 l-19 -23 23 19 c21 18 27 26 19 26 -2 0 -12 -10 -23 -22z"/>
<path d="M1821 6454 c0 -11 3 -14 6 -6 3 7 2 16 -1 19 -3 4 -6 -2 -5 -13z"/>
<path d="M1646 6015 c-9 -26 -7 -32 5 -12 6 10 9 21 6 23 -2 3 -7 -2 -11 -11z"/>
<path d="M1781 6016 c-8 -10 -9 -16 -1 -21 6 -3 7 -11 4 -17 -4 -7 -2 -8 5 -4
8 6 9 12 2 20 -7 9 -7 16 1 24 7 7 9 12 6 12 -3 0 -11 -6 -17 -14z"/>
<path d="M5847 10504 c-17 -9 -30 -26 -34 -45 -3 -16 -6 -29 -8 -29 -1 0 -15
7 -31 15 -38 18 -96 5 -119 -28 -35 -50 -5 -141 58 -170 77 -37 263 -45 370
-16 50 13 105 65 113 106 5 26 1 37 -20 58 -19 19 -34 25 -49 21 -17 -4 -26 2
-39 24 -22 39 -77 43 -100 8 l-15 -23 -7 33 c-13 56 -63 76 -119 46z"/>
<path d="M3370 10420 c-11 -11 -20 -32 -20 -48 0 -17 -8 -32 -21 -40 -12 -8
-19 -21 -17 -35 10 -69 168 -56 251 21 29 28 37 78 15 100 -18 18 -56 14 -70
-7 -12 -19 -13 -19 -35 5 -27 30 -75 32 -103 4z"/>
<path d="M5562 9070 c0 -14 2 -19 5 -12 2 6 2 18 0 25 -3 6 -5 1 -5 -13z"/>
<path d="M8356 9064 c-30 -30 -19 -65 38 -120 75 -72 155 -95 173 -49 3 9 1
26 -5 38 -5 12 -13 30 -16 40 -3 9 -14 17 -24 17 -13 0 -18 7 -17 28 0 24 -3
27 -35 27 -20 0 -42 8 -52 18 -22 21 -42 22 -62 1z"/>
<path d="M4968 9003 c6 -2 18 -2 25 0 6 3 1 5 -13 5 -14 0 -19 -2 -12 -5z"/>
<path d="M8259 8601 c-21 -17 -24 -28 -24 -83 0 -188 226 -388 342 -302 60 45
33 144 -39 144 l-32 0 30 31 c24 25 29 39 29 77 0 93 -75 149 -161 120 -38
-14 -41 -13 -57 9 -22 28 -57 30 -88 4z"/>
<path d="M1713 7983 c-7 -2 -13 -13 -13 -24 0 -17 -3 -18 -21 -9 -16 9 -26 8
-44 -4 -20 -13 -23 -23 -22 -68 2 -43 6 -53 22 -57 66 -12 157 113 113 157
-13 13 -16 13 -35 5z"/>
<path d="M868 7424 c-36 -19 -60 -67 -60 -116 1 -35 -1 -37 -20 -27 -14 8 -28
7 -49 -2 -70 -29 -91 -111 -43 -168 25 -30 25 -31 5 -31 -52 0 -84 -96 -45
-134 14 -15 14 -17 0 -32 -20 -20 -21 -83 0 -112 21 -30 79 -30 125 1 93 61
229 351 229 485 0 52 -15 90 -48 125 -29 30 -54 33 -94 11z"/>
<path d="M8950 6440 c0 -5 5 -10 11 -10 5 0 7 5 4 10 -3 6 -8 10 -11 10 -2 0
-4 -4 -4 -10z"/>
<path d="M1155 6275 c9 -134 11 -147 17 -165 13 -32 17 -80 8 -85 -21 -13 -8
-20 30 -17 38 4 53 16 29 24 -6 2 -14 33 -19 68 -14 106 -48 252 -61 264 -9 8
-10 -13 -4 -89z"/>
<path d="M825 5634 c4 -31 18 -93 31 -137 13 -44 24 -96 24 -114 0 -19 4 -32
9 -29 4 3 16 -22 26 -55 14 -45 16 -62 7 -71 -28 -28 -10 -29 67 -6 34 10 34
11 13 27 -20 16 -56 114 -45 125 3 3 1 11 -4 18 -6 7 -23 51 -38 98 -32 104
-74 200 -88 200 -6 0 -7 -21 -2 -56z"/>
<path d="M1455 5008 c16 -55 88 -191 154 -291 49 -74 71 -117 71 -138 0 -24 4
-30 18 -27 12 3 31 -17 64 -66 43 -63 47 -74 41 -110 l-6 -39 59 33 c111 63
112 64 64 75 -24 5 -42 24 -80 80 -27 40 -46 75 -43 79 4 3 -7 21 -24 39 -16
17 -66 86 -111 152 -77 114 -181 235 -203 235 -6 0 -8 -10 -4 -22z"/>
<path d="M9775 4986 c-27 -13 -62 -36 -77 -52 -32 -35 -81 -173 -104 -291 -20
-102 -23 -308 -6 -368 27 -97 107 -175 177 -175 64 0 123 64 111 121 -5 26 -3
29 22 29 50 1 92 51 92 110 0 23 -9 40 -31 61 l-31 29 26 0 c45 0 106 31 121
61 42 80 -15 209 -91 209 -27 0 -32 17 -9 27 24 9 45 57 45 103 0 54 -20 100
-59 133 -43 36 -114 37 -186 3z"/>
<path d="M775 4926 c-13 -19 -14 -29 -5 -45 6 -12 16 -21 23 -21 7 0 0 -8 -16
-18 -32 -20 -41 -42 -32 -82 7 -32 30 -50 64 -50 11 0 22 -9 26 -20 9 -30 51
-26 72 6 21 33 21 116 -1 167 -33 81 -99 112 -131 63z"/>
<path d="M8687 4818 c8 -44 13 -48 13 -10 0 16 6 33 13 35 6 3 2 6 -10 6 -20
1 -22 -3 -16 -31z"/>
<path d="M1472 4379 c13 -23 58 -79 100 -126 43 -47 78 -94 78 -105 0 -13 5
-18 14 -15 21 8 86 -64 86 -96 0 -15 3 -27 8 -27 4 0 27 16 50 35 l44 34 -27
7 c-24 6 -98 75 -101 93 -1 9 -162 171 -207 209 -56 46 -74 43 -45 -9z"/>
<path d="M8422 4027 c-23 -10 -25 -28 -5 -34 11 -4 39 35 31 42 -2 1 -13 -2
-26 -8z"/>
<path d="M1192 3874 c-33 -23 -25 -94 14 -117 11 -6 9 -12 -6 -27 -23 -23 -25
-42 -9 -73 16 -29 28 -37 62 -37 25 0 27 -2 17 -21 -18 -32 16 -76 53 -70 4 1
12 -10 17 -23 11 -30 44 -49 69 -41 21 6 41 46 41 81 0 74 -106 286 -159 316
-43 25 -75 29 -99 12z"/>
<path d="M1904 1856 c-33 -15 -44 -33 -44 -72 0 -58 60 -124 112 -124 28 0 29
-1 14 -22 -34 -49 -3 -128 60 -154 35 -15 46 -14 105 10 13 6 15 1 11 -22 -3
-23 3 -34 29 -56 28 -24 40 -27 76 -23 35 4 45 1 53 -14 13 -23 74 -41 104
-29 12 4 28 15 35 24 21 25 16 97 -9 147 -32 63 -190 215 -295 284 -83 56 -93
60 -155 62 -40 2 -77 -2 -96 -11z"/>
<path d="M8803 1821 c-50 -31 -83 -115 -50 -126 6 -2 36 -1 66 3 62 8 84 29
63 62 -16 26 -16 27 9 33 13 4 20 12 17 24 -5 26 -65 29 -105 4z"/>
<path d="M3511 1616 c-39 -22 -49 -86 -14 -86 11 0 13 -7 8 -31 -15 -69 43
-124 105 -99 17 7 36 22 42 34 12 21 12 21 18 -3 12 -50 85 -43 104 10 36 104
-158 233 -263 175z"/>
<path d="M6050 1301 c-88 -31 -107 -82 -38 -106 31 -10 40 -10 49 1 10 12 14
12 24 -3 15 -20 45 -11 52 17 3 12 14 20 27 20 45 0 59 37 26 70 -25 25 -68
25 -140 1z"/>
<path d="M6633 1305 c-82 -18 -174 -60 -207 -94 -60 -62 -35 -150 39 -137 24
5 34 3 39 -9 3 -9 18 -15 41 -15 28 0 38 5 47 26 l12 25 13 -25 c30 -57 111
-40 127 27 8 31 13 36 32 31 31 -8 80 21 92 54 13 39 -8 86 -50 112 -38 23
-94 25 -185 5z"/>
<path d="M3996 1169 c-14 -11 -26 -26 -26 -33 0 -22 35 -46 69 -46 18 0 30 -4
26 -10 -8 -12 31 -50 52 -50 9 0 25 8 36 18 15 12 21 14 24 5 5 -15 59 -18 67
-4 3 5 15 7 26 4 24 -6 50 13 50 36 0 30 -47 63 -117 82 -92 26 -172 25 -207
-2z"/>
</g>
</svg>
